<?xml version="1.0" encoding="UTF-8"?>
<svg id="Laag_1" data-name="Laag 1" xmlns="http://www.w3.org/2000/svg" viewBox="0 0 88.69 64.69">
  <defs>
    <style>
      .cls-1 {
        fill: #8b5d30;
        opacity: .2;
        stroke: #8b5d30;
      }

      .cls-1, .cls-2, .cls-3, .cls-4, .cls-5, .cls-6 {
        stroke-miterlimit: 10;
        stroke-width: 2px;
      }

      .cls-2 {
        fill: #ff544c;
        stroke: #ff544c;
      }

      .cls-3 {
        fill: #7d4e24;
        stroke: #7d4e24;
      }

      .cls-4 {
        fill: #ca9e67;
        stroke: #ca9e67;
      }

      .cls-5 {
        fill: #4d3a31;
        opacity: .43;
        stroke: #4d3a31;
      }

      .cls-6 {
        fill: #ff7670;
        opacity: .57;
        stroke: #ff7670;
      }
    </style>
  </defs>
  <path class="cls-4" d="m56.35,36.92v24.66c0,1.16-1.01,2.11-2.25,2.11h-13.59c-1.24,0-2.25-.94-2.25-2.11v-11.28c0-1.16-1.01-2.11-2.25-2.11h-8.32c-1.24,0-2.25.94-2.25,2.11v11.28c0,1.16-1.01,2.11-2.25,2.11h-12.76c-1.23,0-2.23-.93-2.25-2.08l-.32-24.04,23.15-20.79c.55-.5,1.43-.51,1.99-.02l23.33,20.17Z"/>
  <path class="cls-3" d="m52.44,5.36h-4.28c-1.22,0-2.21.91-2.25,2.05l-.26,9.19c-.02.6.24,1.17.7,1.58l8.47,7.56-.13-18.29c0-1.16-1.01-2.09-2.25-2.09Z"/>
  <path class="cls-5" d="m45.67,20.1c-.02.6.23,1.18.69,1.6l8.39,7.62.04-7.9c-2.64-1.56-5.58-2.55-9.12-4.35v3.02Z"/>
  <path class="cls-1" d="m51.04,63.69h3.06c1.24,0,2.25-.94,2.25-2.11v-14.56c-1.81,7.24-3.07,9.68-5.31,16.67Z"/>
  <path class="cls-2" d="m1.7,32.91L30.54,7.27c.87-.77,2.23-.77,3.09,0l12.1,10.8,16.79,14.98c.89.8.94,2.11.1,2.96l-2.35,2.38c-.85.86-2.29.9-3.2.09l-23.41-21.02c-.88-.79-2.27-.78-3.14.03L7.98,38.57h0c-.84.79-2.19.82-3.08.08l-3.14-2.63c-.98-.82-1.01-2.26-.05-3.1Z"/>
  <path class="cls-6" d="m30.51,7.27L1.67,32.91c-.39.34-.42.54-.49.99,1.52,2.91,34.12-25.82,32.41-26.63-.87-.77-2.22-.77-3.09,0Z"/>
</svg>