<?xml version="1.0" encoding="UTF-8"?>
<svg id="Laag_2" data-name="Laag 2" xmlns="http://www.w3.org/2000/svg" viewBox="0 0 49.29 72.01">
  <defs>
    <style>
      .cls-1 {
        fill: #b2b2b2;
        opacity: .45;
      }

      .cls-1, .cls-2, .cls-3, .cls-4 {
        stroke-width: 0px;
      }

      .cls-2 {
        fill: #9d9d9c;
      }

      .cls-2, .cls-3 {
        opacity: .43;
      }

      .cls-3 {
        fill: #575756;
      }

      .cls-4 {
        fill: #706f6f;
      }
    </style>
  </defs>
  <path class="cls-4" d="m.38,32.37l-.14,36.53c0,1.69,1.4,3.06,3.14,3.06l9.91.04c1.74,0,3.15-1.35,3.16-3.04l.14-36.53c0-1.69-1.4-3.06-3.14-3.06l-9.91-.04c-1.74,0-3.15,1.35-3.16,3.04Z"/>
  <circle class="cls-4" cx="8.42" cy="17.08" r="8.4"/>
  <path class="cls-1" d="m1.72,16.13c.36-1.18.36-1.48.54-2.01.75-2.23,2.56-3.52,2.7-3.62,2.03-1.41,4.43-1.33,6.08-1.27.17,0,.32.01.41.02-.67-.26-1.72-.58-3.03-.57-3.37,0-5.58,2.11-5.92,2.44-.18.18-2.68,2.71-2.48,5.96.04.7.23,1.73.53,1.75.35.03.78-1.36,1.18-2.7Z"/>
  <path class="cls-2" d="m4.46,29.75c-.04-.42.09-.33-.53-.39-.43-.04-1.09.03-1.33.11-.29.09-.79.25-1.27.7-.89.83-.94,1.96-.95,2.21-.05,12.18-.09,24.35-.14,36.53,0,1.21.72,2.25,1.77,2.75-1.01-28.94.02-37.16.35-38.35.37-1.33.92-1.9.92-1.9.24-.3.43-.64.7-.91.16-.17.52-.39.48-.75Z"/>
  <path class="cls-3" d="m9.18,71.99c1.83,0,2.29,0,4.11.02,1.74,0,3.15-1.35,3.16-3.04l.14-36.53s0,0,0,0c0,0,0,.18,0,.18,0,.13.21,23.31-1.5,33.34-.13.75-.42,2.33-1.64,3.72-1.29,1.47-3.03,2.06-4.27,2.32Z"/>
</svg>